<?xml version="1.0" standalone="no"?>
<!DOCTYPE svg PUBLIC "-//W3C//DTD SVG 20010904//EN"
 "http://www.w3.org/TR/2001/REC-SVG-20010904/DTD/svg10.dtd">
<svg version="1.0" xmlns="http://www.w3.org/2000/svg"
 width="3612.000000pt" height="3612.000000pt" viewBox="0 0 3612.000000 3612.000000"
 preserveAspectRatio="xMidYMid meet">
<metadata>
Created by potrace 1.14, written by Peter Selinger 2001-2017
</metadata>
<g transform="translate(0.000000,3612.000000) scale(0.100000,-0.100000)"
fill="#000000" stroke="none">
<path d="M4068 22525 c-2 -2 -55 -6 -118 -10 -120 -6 -191 -12 -250 -20 -19
-2 -60 -7 -90 -10 -30 -3 -80 -10 -110 -15 -30 -5 -71 -12 -90 -15 -19 -3 -46
-8 -60 -10 -14 -3 -34 -7 -45 -9 -11 -2 -51 -12 -90 -21 -38 -9 -81 -19 -95
-21 -74 -15 -341 -114 -444 -166 -273 -136 -461 -304 -640 -572 -161 -241
-294 -600 -332 -896 -3 -25 -7 -52 -9 -60 -2 -8 -7 -51 -10 -95 -4 -44 -9 -96
-11 -115 -4 -43 -4 -358 0 -420 32 -441 150 -772 370 -1035 206 -247 542 -469
999 -659 136 -56 211 -85 532 -201 169 -61 760 -277 825 -302 36 -13 76 -28
90 -33 14 -4 68 -24 120 -43 52 -19 221 -80 375 -136 308 -113 416 -156 509
-203 33 -18 64 -32 68 -33 3 0 50 -29 105 -64 209 -137 291 -250 352 -484 11
-42 23 -94 26 -115 3 -21 7 -47 9 -58 22 -111 34 -413 22 -532 -37 -365 -225
-696 -492 -867 -125 -80 -358 -160 -554 -190 -229 -35 -306 -40 -615 -39 -293
0 -402 5 -600 30 -66 8 -138 17 -160 20 -143 17 -477 95 -655 155 -293 97
-703 257 -909 355 -63 30 -116 52 -118 50 -2 -2 -84 -243 -182 -535 l-177
-531 22 -15 c115 -75 887 -363 1204 -449 30 -8 71 -20 90 -25 49 -15 201 -47
355 -76 134 -25 165 -30 250 -40 28 -4 61 -8 75 -10 30 -5 200 -22 285 -30 62
-5 226 -15 330 -20 98 -5 604 -5 680 0 263 16 392 33 634 80 243 47 549 167
771 301 99 60 107 65 205 142 310 243 511 522 653 907 35 97 85 263 98 328 26
136 41 235 52 337 9 94 8 556 -1 670 -9 111 -17 189 -23 220 -2 14 -7 49 -9
79 -3 29 -7 56 -9 60 -3 4 -7 27 -11 51 -12 82 -53 244 -85 335 -127 363 -415
673 -845 910 -218 120 -403 201 -900 395 -209 81 -573 223 -810 315 -236 92
-493 192 -570 222 -77 30 -165 64 -195 75 -30 11 -59 24 -65 29 -5 5 -15 9
-23 9 -7 0 -32 8 -55 18 -23 10 -62 27 -87 37 -81 34 -207 102 -281 151 -189
125 -279 280 -306 526 -9 79 -9 292 0 378 26 247 113 456 247 590 89 88 243
161 435 206 91 21 99 22 149 28 22 3 51 8 63 10 12 3 53 8 90 11 37 4 81 9 98
11 63 7 327 17 465 17 165 0 372 -12 493 -28 20 -3 56 -7 80 -10 23 -3 67 -10
97 -15 30 -5 73 -12 95 -16 121 -18 648 -131 766 -165 24 -7 49 -13 54 -15 43
-9 276 -77 344 -100 88 -29 236 -85 254 -95 12 -7 19 -6 22 3 7 20 305 1017
320 1070 11 41 11 47 -4 51 -9 3 -61 21 -116 41 -90 32 -339 110 -390 121 -11
2 -56 13 -99 25 -44 11 -89 22 -100 25 -12 2 -59 13 -106 24 -105 24 -288 62
-315 66 -11 1 -47 7 -80 13 -33 6 -76 14 -95 17 -19 3 -60 10 -90 15 -30 5
-77 12 -105 15 -27 4 -61 8 -74 10 -14 3 -54 7 -90 11 -36 3 -74 8 -84 10 -10
2 -55 6 -100 9 -45 4 -92 8 -105 10 -12 2 -73 7 -135 10 -61 4 -141 9 -177 11
-68 6 -777 13 -782 9z"/>
<path d="M12507 22524 c-1 -1 -63 -5 -137 -8 -74 -4 -153 -8 -175 -10 -22 -3
-74 -7 -115 -11 -41 -3 -86 -8 -100 -10 -14 -2 -50 -6 -80 -10 -30 -3 -66 -8
-80 -10 -14 -3 -41 -7 -60 -10 -742 -114 -1313 -375 -1725 -789 -118 -118
-252 -292 -314 -406 -119 -221 -215 -461 -256 -644 -25 -111 -45 -213 -50
-253 -4 -26 -8 -55 -10 -63 -16 -62 -20 -429 -20 -2060 0 -1637 3 -1984 19
-2065 2 -11 7 -42 10 -70 45 -342 203 -755 393 -1028 306 -441 826 -779 1473
-957 191 -52 487 -108 665 -125 33 -3 71 -8 85 -10 45 -8 219 -21 405 -30 105
-5 603 -6 720 -1 107 5 272 16 315 21 19 2 63 7 97 10 34 3 70 7 80 9 10 2 43
7 74 10 31 4 67 9 80 12 13 2 42 7 64 9 38 5 226 41 270 51 11 3 31 7 44 10
112 23 357 100 506 159 74 29 295 137 373 182 326 187 617 463 791 746 141
231 276 584 316 827 3 19 7 46 10 60 14 75 20 128 32 275 10 116 10 3677 0
3812 -4 56 -9 107 -11 115 -3 7 -7 40 -11 73 -4 50 -44 250 -60 305 -24 84
-36 128 -39 141 -19 74 -128 321 -200 451 -144 261 -378 514 -646 699 -234
162 -536 306 -822 393 -111 34 -336 89 -408 100 -19 3 -46 8 -60 11 -24 5 -51
9 -115 20 -50 8 -256 33 -325 40 -36 3 -85 8 -110 11 -123 13 -882 28 -893 18z
m548 -1128 c66 -4 134 -9 150 -11 17 -2 55 -6 85 -10 68 -7 146 -20 270 -44
162 -32 446 -130 560 -195 19 -10 49 -26 65 -34 62 -32 172 -112 230 -168 164
-160 266 -359 311 -611 2 -13 7 -35 11 -50 11 -43 13 -3955 2 -4043 -22 -173
-81 -360 -148 -470 -17 -28 -31 -55 -31 -60 0 -6 -4 -10 -8 -10 -4 0 -15 -12
-24 -27 -23 -39 -123 -141 -183 -189 -67 -54 -134 -95 -230 -141 -290 -139
-558 -208 -975 -250 -150 -15 -699 -7 -795 11 -11 2 -49 7 -85 11 -175 19
-448 87 -615 152 -270 107 -444 228 -576 401 -81 107 -162 296 -188 437 -6 33
-13 70 -15 82 -16 80 -18 355 -18 2048 0 1700 2 2002 17 2070 3 11 7 31 9 45
35 213 141 426 284 575 197 204 578 371 1007 440 50 7 113 17 140 20 28 3 64
8 80 10 17 2 82 7 145 10 63 4 116 8 117 8 4 5 301 -1 408 -7z"/>
<path d="M21648 22525 c-2 -2 -66 -6 -143 -10 -139 -6 -159 -8 -285 -20 -88
-9 -205 -22 -250 -30 -14 -2 -45 -7 -70 -10 -25 -3 -52 -8 -60 -10 -8 -3 -31
-7 -50 -9 -99 -13 -339 -70 -495 -118 -289 -88 -612 -246 -840 -411 -38 -28
-72 -53 -75 -56 -3 -3 -27 -24 -55 -45 -88 -69 -248 -238 -333 -351 -129 -173
-244 -394 -321 -619 -23 -65 -43 -128 -46 -140 -2 -11 -13 -57 -24 -102 -28
-115 -58 -293 -68 -404 -10 -120 -11 -3783 0 -3907 4 -51 9 -98 12 -105 2 -7
6 -35 9 -63 8 -64 13 -94 32 -180 9 -38 17 -79 20 -89 22 -110 106 -336 187
-506 211 -440 603 -801 1127 -1039 52 -24 109 -50 125 -57 50 -23 294 -103
390 -129 110 -29 351 -79 460 -95 44 -6 91 -13 104 -15 14 -3 52 -7 85 -10 34
-4 72 -8 86 -10 42 -7 272 -24 420 -31 113 -5 592 -5 705 1 115 5 285 16 304
20 9 1 50 6 92 9 78 8 87 9 179 20 69 9 343 57 350 61 3 2 23 6 45 9 22 4 56
11 75 18 19 6 41 12 50 13 18 1 87 20 150 40 25 8 65 21 90 29 166 53 363 140
559 248 51 28 299 193 311 207 3 3 27 24 55 46 145 117 355 358 428 491 12 21
25 41 28 44 13 10 128 248 163 339 35 87 100 298 110 356 3 14 7 33 10 43 4
15 11 51 21 117 2 11 6 34 9 50 9 48 17 123 24 225 9 135 8 3739 -1 3830 -14
127 -17 151 -38 265 -32 174 -79 346 -126 465 -4 8 -7 17 -8 20 -18 53 -73
170 -143 305 -28 54 -104 168 -162 245 -385 506 -1075 865 -1895 985 -103 15
-175 24 -230 30 -33 3 -76 8 -95 10 -39 5 -146 14 -265 21 -85 6 -733 13 -737
9z m547 -1129 c130 -8 163 -11 385 -43 76 -10 250 -53 345 -84 55 -18 102 -33
105 -33 15 -2 157 -64 235 -104 218 -109 373 -253 478 -444 37 -67 87 -199
103 -269 41 -187 39 -68 39 -2159 0 -1086 -3 -2002 -7 -2035 -40 -329 -177
-583 -410 -764 -112 -87 -350 -200 -548 -260 -166 -51 -417 -97 -635 -118
-160 -15 -699 -7 -815 12 -14 2 -45 7 -70 10 -303 40 -568 118 -796 233 -284
144 -455 339 -550 631 -14 42 -27 92 -30 111 -3 19 -7 41 -9 48 -3 7 -7 34
-10 60 -4 26 -8 58 -11 72 -6 32 -6 3918 0 3946 2 12 7 45 11 75 29 248 157
513 319 659 22 19 47 42 55 51 27 28 182 123 266 163 191 91 457 172 663 201
20 3 48 8 62 10 14 3 48 7 75 10 28 3 64 8 80 10 17 2 86 7 155 10 69 4 126 8
127 9 4 3 290 -2 388 -8z"/>
<path d="M31628 22525 c-2 -1 -52 -5 -113 -9 -60 -4 -123 -9 -140 -11 -16 -3
-52 -7 -80 -10 -100 -9 -213 -27 -330 -52 -66 -14 -128 -27 -138 -28 -59 -12
-305 -93 -364 -120 -17 -8 -34 -15 -38 -15 -12 0 -258 -123 -330 -166 -148
-87 -267 -168 -381 -259 -69 -56 -62 -49 -182 -168 l-110 -109 1 391 c0 215
-2 394 -6 397 -7 8 -1446 8 -1454 0 -5 -4 -8 -8166 -4 -8233 1 -10 154 -13
731 -13 402 0 730 3 731 8 0 4 1 1362 3 3017 1 1656 5 3020 9 3031 3 12 8 39
11 60 40 258 201 524 445 737 196 171 530 314 866 372 51 9 165 25 215 30 30
3 69 8 85 10 205 27 739 21 885 -10 14 -3 39 -7 55 -10 472 -69 869 -277 1052
-552 79 -119 123 -234 159 -413 4 -19 8 -1434 10 -3145 1 -1710 3 -3116 3
-3123 1 -10 151 -12 733 -10 l731 3 0 3045 c0 2676 -3 3190 -17 3267 -2 10 -7
45 -11 78 -14 131 -94 447 -135 540 -5 11 -29 68 -54 126 -102 240 -231 431
-412 613 -93 93 -112 109 -289 243 -98 75 -308 190 -465 256 -64 26 -259 92
-302 102 -13 2 -61 14 -108 25 -82 20 -197 43 -270 54 -91 13 -108 16 -155 21
-27 3 -77 8 -110 11 -33 2 -87 7 -120 10 -58 6 -602 14 -607 9z"/>
</g>
</svg>
